<svg xmlns="http://www.w3.org/2000/svg" xml:space="preserve" id="bmw" width="512" height="512" x="0" y="0" version="1.1" viewBox="0 0 512 512">
  <path fill="#E82828" d="M497.986 303.491c.971-20.328.771-37.423-.585-50.771-.499-5.166-3.19-9.895-7.329-12.931-.167-.124-13.656-10.244-26.229-26.37 9.251-.55 16.678-3.242 22.109-8.022 5.646-4.964 8.758-11.896 8.758-19.518 0-12.85-6.516-22.818-17.873-27.352-7.405-2.956-15.201-2.998-20.957-2.999a31.434 31.434 0 0 0-.896-.012c-5.859 0-12.562 1.321-18.896 4.464-5.903-12.477-11.918-24.164-17.535-34.033-14.869-26.118-24.692-36.62-36.245-38.75l-.593-.097a22.482 22.482 0 0 0-1.453-.161l-1.026-.057c-20.776-1.057-90.926-4.505-121.228-4.505h-4.02c-30.382 0-100.521 3.451-121.294 4.509l-.885.047c-.533.037-1.032.096-1.528.167l-.587.096c-11.554 2.125-21.379 12.627-36.251 38.749-5.606 9.845-11.621 21.532-17.535 34.033-6.333-3.142-13.032-4.461-18.892-4.461-.353 0-.652.005-.897.012-5.756 0-13.554.043-20.96 2.998-11.363 4.532-17.88 14.502-17.88 27.353 0 7.601 3.102 14.524 8.759 19.52 5.438 4.778 12.863 7.47 22.106 8.021C35.938 229.078 22.86 239.084 21.9 239.81c-4.144 3.07-6.8 7.761-7.292 12.833-1.363 13.42-1.563 30.513-.593 50.837a27.93 27.93 0 0 0-.614 5.81v91.99c0 15.632 12.719 28.351 28.351 28.351h40.779c13.851 0 25.412-9.981 27.869-23.131h291.203c2.457 13.148 14.019 23.131 27.868 23.131h40.78c15.627 0 28.34-12.719 28.34-28.351v-91.99a28.264 28.264 0 0 0-.605-5.799z"></path>
  <linearGradient id="SVGID_1_" x1="297.6" x2="297.6" y1="265.726" y2="-81.527" gradientTransform="matrix(1 0 0 -1 -41.6 348.1)" gradientUnits="userSpaceOnUse">
    <stop offset="0" stop-color="#FFF" stop-opacity="0"></stop>
    <stop offset="1" stop-opacity=".3"></stop>
  </linearGradient>
  <path fill="url(#SVGID_1_)" d="M497.99 303.486c.971-20.328.771-37.422-.586-50.771-.498-5.166-3.189-9.895-7.328-12.93-.168-.125-13.656-10.244-26.229-26.371 9.25-.55 16.678-3.242 22.109-8.022 5.646-4.964 8.758-11.896 8.758-19.518 0-12.85-6.516-22.818-17.873-27.352-7.406-2.956-15.201-2.998-20.957-2.999a31.489 31.489 0 0 0-.896-.012c-5.859 0-12.561 1.321-18.895 4.464-5.904-12.477-11.918-24.164-17.535-34.033-14.869-26.118-24.693-36.62-36.246-38.75l-.592-.097a22.56 22.56 0 0 0-1.453-.161l-1.027-.057c-20.775-1.057-90.926-4.505-121.227-4.505h-4.02c-30.382 0-100.521 3.451-121.294 4.509l-.885.047c-.533.037-1.032.096-1.528.167l-.587.096c-11.554 2.125-21.379 12.627-36.251 38.749-5.606 9.845-11.621 21.532-17.535 34.033-6.333-3.142-13.032-4.461-18.892-4.461-.353 0-.652.005-.897.012-5.756 0-13.554.043-20.96 2.998-11.363 4.532-17.88 14.502-17.88 27.353 0 7.601 3.102 14.524 8.759 19.52 5.438 4.778 12.863 7.47 22.106 8.021-12.208 15.659-25.286 25.665-26.246 26.392-4.144 3.07-6.8 7.76-7.292 12.832-1.363 13.42-1.563 30.514-.593 50.838a27.921 27.921 0 0 0-.614 5.809v91.99c0 15.633 12.719 28.352 28.351 28.352h40.779c13.851 0 25.412-9.982 27.869-23.131h291.204c2.457 13.148 14.018 23.131 27.867 23.131h40.781c15.627 0 28.34-12.719 28.34-28.352v-91.99a28.276 28.276 0 0 0-.605-5.801z"></path>
  <path fill="#FFF" d="M129.68 353.639H77.45c-.761.029-13.16.729-17 8.221-2.66 5.18-.71 13.13 5.609 23.06h66.351c-5.051-4.72-7.78-9.89-8.141-15.46-.409-6.41 2.481-11.95 5.411-15.821zM460.6 391.5h-37.89v9.78a6.764 6.764 0 0 0 6.76 6.76h40.78a6.764 6.764 0 0 0 6.76-6.76v-33.37c-.37 2.689-.689 4.859-.931 6.41-2.17 13.64-10.909 17.18-15.479 17.18zM212.43 302.05h26.9c3.27 0 5.93-2.648 5.93-5.92v-13.21c0-3.27-2.66-5.93-5.93-5.93H191.8c.01 4.6.78 13.56 6.03 19.38 3.4 3.769 8.32 5.68 14.6 5.68zM272.67 302.05h26.899c6.29 0 11.199-1.909 14.601-5.68 5.25-5.82 6.021-14.78 6.029-19.38H272.67a5.936 5.936 0 0 0-5.93 5.93v13.21c0 3.27 2.661 5.92 5.93 5.92zM256 123.51c1.649-.011 80.069-.721 125.88 2.85a511.713 511.713 0 0 0-12.33-18.35c-23.311-1.15-84.42-4.051-111.54-4.051h-4.02c-27.12 0-88.23 2.9-111.54 4.051a505.717 505.717 0 0 0-12.33 18.35c45.82-3.57 124.28-2.86 125.88-2.85zM455.071 191.64c.141 0 .279.01.42.029 3.029.38 12.529.75 16.221-2.489.979-.87 1.42-1.881 1.42-3.301 0-7.439-4.601-8.77-17.561-8.77-.09 0-.181 0-.261-.01-.659-.051-16.119-.91-20.43 17 .989 2.35 2.069 4.64 3.21 6.88 3.08-6.009 8.941-9.339 16.981-9.339zM57.42 265.4c-.17 5.27.43 15.63 6.81 23.05 4.471 5.18 11.11 8.149 19.79 8.84-2.96-4.01-4.6-8.899-4.6-14.08a23.76 23.76 0 0 1 4.77-14.279c-8.98-.931-18.21-2.091-26.77-3.531zM73.9 200.98a113.12 113.12 0 0 0 3.221-6.88c-4.341-18.061-19.761-17.051-20.431-17-.08.01-.17.01-.26.01-12.96 0-17.56 1.33-17.56 8.77 0 1.42.439 2.431 1.42 3.301 3.68 3.239 13.189 2.869 16.22 2.489.14-.02.28-.029.42-.029 8.03-.001 13.9 3.319 16.97 9.339z"></path>
  <path fill="#FFF" d="M35.92 374.32c-.25-1.551-.57-3.721-.93-6.41v33.37a6.764 6.764 0 0 0 6.76 6.76h40.78a6.765 6.765 0 0 0 6.761-6.76v-9.78H51.4c-4.57 0-13.31-3.54-15.48-17.18zM451.539 361.84c-3.819-7.398-16.25-8.17-16.989-8.199h-52.229c2.931 3.869 5.811 9.409 5.41 15.819-.36 5.57-3.091 10.74-8.141 15.46h66.351c6.319-9.94 8.269-17.901 5.598-23.08zM387.81 271.969c-5.42.271-8.739.391-8.859.391h-.109c-6.91 0-12.54 5.63-12.54 12.55 0 6.91 5.63 12.54 12.54 12.54h10.87c-3.03-4.04-4.71-8.99-4.71-14.24-.002-4.01.968-7.84 2.808-11.241zM427.81 268.929a23.76 23.76 0 0 1 4.771 14.279c0 5.181-1.64 10.07-4.6 14.08 8.689-.7 15.35-3.67 19.81-8.87 6.4-7.45 6.979-17.77 6.801-23.02-8.561 1.432-17.803 2.602-26.782 3.531z"></path>
  <path fill="#FFF" d="M428.571 196.11c-.061-.14-.12-.29-.181-.43-.01-.021-.021-.03-.029-.051-8.971-21.369-19.359-42.85-28.561-59-14.21-24.939-20.149-27.83-21.261-28.159-.159-.011-.39-.021-.659-.04 6.199 8.989 18.109 26.869 23.3 38.85 4.99 11.52 12.71 32.67 17.32 45.31 1.88 5.16 3.369 9.24 3.97 10.75.41 1.011.28 2.16-.33 3.061a3.27 3.27 0 0 1-2.72 1.45H92.58c-1.09 0-2.11-.54-2.721-1.45a3.277 3.277 0 0 1-.33-3.061c.591-1.51 2.08-5.56 3.95-10.699 4.62-12.65 12.34-33.83 17.34-45.36 5.19-11.98 17.101-29.86 23.301-38.85-.28.02-.5.029-.66.04-1.11.329-7.061 3.22-21.26 28.159-9.2 16.14-19.59 37.61-28.56 58.98-.01.03-.03.06-.04.1-.06.13-.12.271-.17.4-13.72 32.75-41.33 55.37-47.49 60.14-1.34 14.4-1.13 32-.229 49.23v.02c1.59 30.07 5.31 59 6.71 67.78 1.8 11.3 8.35 11.64 9.09 11.64h6.87c-5.97-10.59-7.25-19.359-3.771-26.1 5.73-11.12 21.98-11.74 22.67-11.771h60.02c1.41 0 2.66.892 3.11 2.221a3.292 3.292 0 0 1-1.07 3.66c-.08.069-9.08 7.329-8.49 16.149.37 5.601 4.57 10.92 12.48 15.84h225.34c7.92-4.92 12.13-10.26 12.489-15.87.55-8.729-8.41-16.05-8.5-16.119a3.28 3.28 0 0 1-1.08-3.66 3.3 3.3 0 0 1 3.12-2.221h60.021c.689.03 16.939.65 22.67 11.771 3.479 6.739 2.2 15.5-3.771 26.1h6.92c.69 0 7.24-.34 9.03-11.64 1.399-8.78 5.13-37.71 6.72-67.78v-.01c.9-17.23 1.11-34.84-.229-49.24-6.159-4.77-33.779-27.39-47.489-60.14zM260.16 282.92c0-6.899 5.608-12.52 12.51-12.52h50.689a3.3 3.3 0 0 1 3.279 2.949c.07.689 1.689 17.131-7.55 27.399-4.71 5.24-11.28 7.891-19.521 7.891h-27.149c-.09 0-.17-.011-.26-.011-6.66-.27-12-5.77-12-12.5l.002-13.208zm-74.8-9.571a3.304 3.304 0 0 1 3.28-2.949h50.69c6.899 0 12.51 5.619 12.51 12.52v13.21c0 6.73-5.34 12.23-12 12.5-.09 0-.17.011-.26.011h-27.15c-8.24 0-14.81-2.649-19.52-7.891-9.24-10.27-7.62-26.71-7.55-27.401zm-52.19 30.681h-19.33H88.1c-12.72 0-22.439-3.811-28.89-11.32-10.83-12.63-8.16-30.91-8.05-31.68.14-.88.619-1.66 1.35-2.181a3.26 3.26 0 0 1 2.5-.561c32.06 5.83 76.46 7.431 78.21 7.49 10.51.029 19.06 8.6 19.06 19.13 0 10.542-8.57 19.122-19.11 19.122zm239.481 68.59c-2.41 5.41-8.96 8.16-19.46 8.16H158.81c-10.51 0-17.06-2.75-19.47-8.16-4.311-9.689 7.31-22.99 8.649-24.479a3.295 3.295 0 0 1 2.44-1.091h211.14c.931 0 1.819.4 2.439 1.091 1.342 1.489 12.952 14.788 8.643 24.479zm80.138-79.91c-6.449 7.511-16.17 11.32-28.89 11.32h-45.072c-10.54 0-19.109-8.58-19.109-19.12 0-10.53 8.54-19.101 19.061-19.13 1.75-.061 46.141-1.66 78.21-7.49.88-.16 1.779.04 2.5.561s1.21 1.301 1.34 2.181c.12.768 2.79 19.058-8.04 31.678z"></path>
  <path fill="#FFF" d="M151.95 353.639c-3.421 4.17-8.44 12.141-6.591 16.301 1.221 2.739 6 4.25 13.45 4.25h194.38c7.449 0 12.22-1.511 13.449-4.25 1.851-4.16-3.17-12.12-6.59-16.301H151.95zM133.16 272.36h-.11c-.12 0-3.44-.12-8.86-.391 1.84 3.399 2.811 7.229 2.811 11.239 0 5.25-1.681 10.2-4.71 14.24h10.87c6.909 0 12.54-5.63 12.54-12.54-.001-6.918-5.631-12.548-12.541-12.548z"></path>
  <path fill="#052C49" d="M152.28 284.91c0-10.53-8.55-19.101-19.06-19.13-1.75-.061-46.15-1.66-78.21-7.49a3.26 3.26 0 0 0-2.5.561 3.305 3.305 0 0 0-1.35 2.181c-.11.77-2.78 19.05 8.05 31.68 6.45 7.511 16.17 11.32 28.89 11.32h45.07c10.54-.002 19.11-8.582 19.11-19.122zm-68.26 12.38c-8.68-.689-15.319-3.66-19.79-8.84-6.38-7.42-6.979-17.78-6.81-23.05 8.56 1.438 17.79 2.6 26.77 3.529a23.766 23.766 0 0 0-4.77 14.279c0 5.181 1.64 10.072 4.6 14.082zm28.84.16h-19.3c-4.75-3.22-7.56-8.479-7.56-14.24 0-5.279 2.42-10.229 6.52-13.47 8.58.779 16.63 1.35 23.26 1.75 2.99 3.189 4.641 7.3 4.641 11.72-.001 5.759-2.811 11.02-7.561 14.24zm20.3 0h-10.87c3.029-4.04 4.71-8.99 4.71-14.24 0-4.01-.971-7.84-2.811-11.239 5.42.271 8.74.391 8.86.391h.11c6.909 0 12.54 5.63 12.54 12.55.001 6.908-5.629 12.538-12.539 12.538zM212.43 308.639h27.15c.09 0 .17-.011.26-.011 6.66-.27 12-5.77 12-12.5v-13.21c0-6.899-5.61-12.52-12.51-12.52h-50.69a3.303 3.303 0 0 0-3.28 2.949c-.069.689-1.689 17.131 7.551 27.399 4.709 5.244 11.279 7.893 19.519 7.893zm26.9-31.649c3.27 0 5.93 2.66 5.93 5.93v13.21c0 3.271-2.66 5.92-5.93 5.92h-26.9c-6.28 0-11.2-1.909-14.6-5.68-5.25-5.82-6.021-14.78-6.03-19.38h47.53zM361.571 347.05H150.43c-.93 0-1.82.4-2.44 1.091-1.34 1.489-12.96 14.79-8.649 24.479 2.41 5.41 8.96 8.16 19.47 8.16h194.38c10.5 0 17.05-2.75 19.46-8.16 4.311-9.689-7.301-22.99-8.641-24.479a3.286 3.286 0 0 0-2.439-1.091zm5.069 22.89c-1.229 2.739-6 4.25-13.449 4.25H158.81c-7.45 0-12.229-1.511-13.45-4.25-1.85-4.16 3.17-12.131 6.591-16.301h208.1c3.419 4.181 8.439 12.141 6.589 16.301zM459.49 258.849a3.26 3.26 0 0 0-2.5-.561c-32.069 5.83-76.46 7.431-78.21 7.49-10.521.029-19.061 8.6-19.061 19.13 0 10.54 8.569 19.12 19.109 19.12H423.9c12.72 0 22.439-3.812 28.89-11.32 10.83-12.62 8.16-30.91 8.04-31.68a3.296 3.296 0 0 0-1.34-2.179zm-80.65 38.601c-6.91 0-12.54-5.63-12.54-12.54 0-6.92 5.63-12.55 12.54-12.55h.109c.12 0 3.439-.12 8.859-.391-1.84 3.399-2.811 7.229-2.811 11.239 0 5.25 1.681 10.2 4.711 14.24l-10.868.002zm39.601 0H399.14c-4.75-3.22-7.561-8.479-7.561-14.24 0-4.42 1.65-8.529 4.641-11.72 6.63-.4 14.681-.971 23.261-1.75a17.16 17.16 0 0 1 6.521 13.47c-.002 5.759-2.822 11.02-7.561 14.24zm29.348-9.03c-4.46 5.2-11.119 8.17-19.81 8.87 2.96-4.01 4.6-8.899 4.6-14.08 0-5.229-1.72-10.22-4.771-14.279 8.979-.931 18.221-2.101 26.78-3.529.182 5.248-.397 15.567-6.799 23.018zM272.16 308.63c.09 0 .17.011.26.011h27.149c8.239 0 14.811-2.649 19.521-7.891 9.239-10.27 7.62-26.71 7.55-27.399a3.302 3.302 0 0 0-3.279-2.949h-50.689c-6.9 0-12.51 5.619-12.51 12.52v13.21c-.002 6.728 5.338 12.228 11.998 12.498zm-5.42-25.71c0-3.27 2.66-5.93 5.931-5.93H320.2c-.01 4.6-.779 13.56-6.029 19.38-3.4 3.771-8.311 5.68-14.601 5.68h-26.9c-3.271 0-5.931-2.648-5.931-5.92v-13.21z"></path>
  <path fill="#052C49" d="M482.89 305.05c.92-17.869 1.08-36.13-.42-50.89-.09-.93-.58-1.77-1.33-2.32-.271-.199-22.899-16.97-38.659-42.97.989-7.09 5.05-10.58 12.39-10.64 2.29.27 14.851 1.47 21.181-4.101 2.399-2.109 3.66-4.96 3.66-8.25 0-15.319-14.46-15.35-24.08-15.35-1.91-.08-17.189-.19-24.551 14.7-8.25-18.95-17.369-37.471-25.561-51.86-15.189-26.68-22.079-30.71-25.93-31.42a6.32 6.32 0 0 0-.431-.05c-.869-.04-87.271-4.521-121.149-4.521h-4.02c-33.881 0-120.29 4.48-121.15 4.521-.15.01-.29.03-.43.05-3.86.71-10.74 4.74-25.931 31.42-8.189 14.38-17.31 32.91-25.56 51.851-7.36-14.881-22.62-14.771-24.55-14.69-9.62 0-24.09.03-24.09 15.35 0 3.29 1.27 6.141 3.659 8.25 6.341 5.57 18.9 4.37 21.19 4.101 7.34.06 11.4 3.55 12.38 10.64-15.74 25.96-38.39 42.771-38.65 42.97a3.242 3.242 0 0 0-1.329 2.32c-1.5 14.76-1.341 33.021-.421 50.89-.46 1.37-.71 2.78-.71 4.24v91.99c0 7.359 5.99 13.35 13.351 13.35h40.78c7.359 0 13.35-5.989 13.35-13.35v-9.78h320.24v9.78c0 7.359 5.99 13.35 13.351 13.35h40.78c7.359 0 13.34-5.989 13.34-13.35v-91.99c0-1.461-.24-2.871-.7-4.241zM455.31 177.1c.08.01.171.01.261.01 12.96 0 17.561 1.33 17.561 8.77 0 1.42-.439 2.431-1.42 3.301-3.69 3.239-13.19 2.869-16.221 2.489a2.965 2.965 0 0 0-.42-.029c-8.04 0-13.899 3.33-16.979 9.34a104.307 104.307 0 0 1-3.21-6.88c4.309-17.911 19.769-17.051 20.428-17.001zm-201.32-73.14h4.02c27.12 0 88.229 2.9 111.54 4.051a507.08 507.08 0 0 1 12.33 18.35c-45.811-3.57-124.229-2.86-125.88-2.85-1.601-.011-80.061-.721-125.88 2.85 5.26-8.23 10.31-15.49 12.33-18.35 23.31-1.151 84.42-4.051 111.54-4.051zm132.23 29.37c3.561 5.88 6.84 11.78 8.92 16.57 4.91 11.34 12.591 32.38 17.181 44.95.899 2.479 1.689 4.64 2.34 6.42H97.34c.64-1.771 1.43-3.91 2.33-6.37 4.59-12.59 12.27-33.65 17.189-45 2.07-4.79 5.36-10.69 8.92-16.57 44.73-4.02 129.33-3.24 130.19-3.229H256.03c.86-.011 85.451-.791 130.19 3.229zM56.93 191.64c-.14 0-.28.01-.42.029-3.03.38-12.54.75-16.22-2.489-.98-.87-1.42-1.881-1.42-3.301 0-7.439 4.6-8.77 17.56-8.77.09 0 .18 0 .26-.01.67-.051 16.09-1.061 20.431 17-1 2.34-2.08 4.64-3.221 6.88-3.07-6.019-8.94-9.339-16.97-9.339zm32.36 209.64c0 3.729-3.03 6.76-6.761 6.76H41.75a6.764 6.764 0 0 1-6.76-6.76v-33.37c.359 2.689.68 4.859.93 6.41 2.17 13.64 10.91 17.18 15.479 17.18H89.29v9.78zm3.3-16.36H66.06c-6.319-9.93-8.27-17.88-5.609-23.06 3.84-7.49 16.239-8.19 17-8.221h52.229c-2.93 3.869-5.82 9.409-5.41 15.819.36 5.57 3.09 10.74 8.141 15.46l-39.821.002zm287 0c5.05-4.72 7.779-9.89 8.141-15.46.399-6.41-2.48-11.949-5.41-15.819h52.229c.739.029 13.17.801 16.989 8.199 2.671 5.181.721 13.142-5.6 23.08H379.59zm97.42 16.36a6.764 6.764 0 0 1-6.76 6.76h-40.78a6.764 6.764 0 0 1-6.76-6.76v-9.78h37.89c4.57 0 13.311-3.54 15.479-17.18.24-1.551.561-3.721.931-6.41v33.37zm-.721-95.79v.01c-1.59 30.07-5.319 59-6.72 67.78-1.79 11.3-8.34 11.64-9.03 11.64h-6.92c5.971-10.6 7.25-19.359 3.771-26.1-5.729-11.12-21.979-11.74-22.67-11.771h-60.021a3.3 3.3 0 0 0-3.12 2.221 3.28 3.28 0 0 0 1.08 3.66c.091.069 9.051 7.391 8.5 16.119-.359 5.61-4.569 10.95-12.489 15.87H143.33c-7.91-4.92-12.11-10.239-12.48-15.84-.59-8.82 8.41-16.08 8.49-16.149a3.29 3.29 0 0 0 1.07-3.66 3.277 3.277 0 0 0-3.11-2.221H77.28c-.689.03-16.939.65-22.67 11.771-3.479 6.739-2.199 15.51 3.771 26.1h-6.87c-.74 0-7.29-.34-9.09-11.64-1.4-8.78-5.12-37.71-6.71-67.78v-.02c-.9-17.23-1.11-34.83.229-49.23 6.16-4.77 33.771-27.39 47.49-60.14.05-.13.11-.271.17-.4.01-.04.03-.069.04-.1 8.97-21.37 19.36-42.84 28.561-58.98 14.199-24.939 20.149-27.83 21.26-28.159.16-.011.38-.021.66-.04-6.2 8.989-18.11 26.869-23.301 38.85-5 11.53-12.72 32.71-17.34 45.36-1.87 5.14-3.359 9.189-3.95 10.699a3.278 3.278 0 0 0 .33 3.061c.61.91 1.631 1.45 2.721 1.45h326.84c1.09 0 2.109-.54 2.72-1.45.61-.9.74-2.05.33-3.061-.601-1.51-2.09-5.59-3.97-10.75-4.61-12.64-12.33-33.79-17.32-45.31-5.189-11.98-17.101-29.86-23.3-38.85.271.02.5.029.659.04 1.11.329 7.051 3.22 21.261 28.159 9.2 16.15 19.59 37.631 28.561 59 .01.021.021.03.029.051.061.14.12.29.181.43 13.71 32.75 41.33 55.37 47.489 60.14 1.34 14.4 1.13 32.01.228 49.24z"></path>
</svg>
